<?xml version="1.0" encoding="UTF-8" standalone="no"?>
<svg
   xmlns:dc="http://purl.org/dc/elements/1.1/"
   xmlns:cc="http://creativecommons.org/ns#"
   xmlns:rdf="http://www.w3.org/1999/02/22-rdf-syntax-ns#"
   xmlns:svg="http://www.w3.org/2000/svg"
   xmlns="http://www.w3.org/2000/svg"
   viewBox="0 0 674.06934 718.35065"
   height="718.35065"
   width="674.06934"
   xml:space="preserve"
   id="svg2"
   version="1.1"><metadata
     id="metadata8"><rdf:RDF><cc:Work
         rdf:about=""><dc:format>image/svg+xml</dc:format><dc:type
           rdf:resource="http://purl.org/dc/dcmitype/StillImage" /></cc:Work></rdf:RDF></metadata><defs
     id="defs6"><clipPath
       id="clipPath18"
       clipPathUnits="userSpaceOnUse"><path
         id="path16"
         d="M 0,538.763 H 505.552 V 0 H 0 Z" /></clipPath></defs><g
     transform="matrix(1.3333333,0,0,-1.3333333,0,718.35067)"
     id="g10"><g
       id="g12"><g
         clip-path="url(#clipPath18)"
         id="g14"><g
           transform="translate(68.4439,511.5194)"
           id="g20"><path
             id="path22"
             style="fill:#000000;fill-opacity:1;fill-rule:nonzero;stroke:none"
             d="m 0,0 c -7.316,0 -13.971,-0.379 -20.559,0.124 -4.938,0.377 -6.128,-1.175 -6.122,-5.986 0.13,-108.295 0.102,-216.59 0.103,-324.885 0,-1.933 0,-3.866 0,-5.714 h 233.166 v 29.032 c -7.85,-1.948 -15.048,-3.942 -22.339,-5.508 -37.638,-8.081 -75.749,-12.763 -114.133,-15.128 -18.271,-1.125 -36.592,-1.657 -54.897,-1.918 -8.716,-0.124 -12.681,3.783 -14.184,12.403 -0.681,3.911 -0.993,7.936 -0.995,11.909 C -0.012,-206.206 0,-106.741 0,-7.276 0,-5.127 0,-2.978 0,0" /></g><g
           transform="translate(321.9251,372.7907)"
           id="g24"><path
             id="path26"
             style="fill:#000000;fill-opacity:1;fill-rule:nonzero;stroke:none"
             d="m 0,0 c 0,-6.509 0.001,-12.474 0,-18.439 -0.001,-11.931 0.033,-11.729 11.725,-13.726 18.53,-3.164 37.119,-6.121 55.476,-10.12 16.335,-3.559 32.12,-9.299 45.578,-19.571 21.925,-16.735 27.038,-40.039 23.044,-65.722 -4.014,-25.814 -19.947,-43.454 -42.407,-55.346 -19.15,-10.14 -39.928,-14.723 -61.518,-15.119 -10.433,-0.192 -20.884,0.641 -31.499,1.016 v -6.512 c 0.727,-0.276 1.03,-0.472 1.347,-0.499 36.972,-3.118 73.054,0.116 106.525,17.438 32.414,16.774 51.832,42.686 52.521,80.415 0.45,24.603 -6.469,46.391 -25.558,63.077 -12.213,10.676 -26.535,17.662 -41.76,22.931 C 70.411,-12.197 46.562,-7.694 22.516,-4.008 15.163,-2.881 7.863,-1.41 0,0" /></g><g
           transform="translate(322.2316,511.2289)"
           id="g28"><path
             id="path30"
             style="fill:#000000;fill-opacity:1;fill-rule:nonzero;stroke:none"
             d="m 0,0 c 0.725,-0.121 1.203,-0.302 1.662,-0.262 30.293,2.649 59.508,-1.1 86.793,-15.256 22.145,-11.489 38.475,-28.282 46.154,-52.572 0.576,-1.824 1.22,-3.628 1.86,-5.52 8.21,3.185 11.776,9.159 12.746,16.973 1.394,11.242 -1.88,20.982 -9.363,29.47 -8.625,9.783 -19.755,15.738 -31.557,20.43 C 82.706,3.436 55.757,6.369 28.516,6.988 18.784,7.21 9.024,6.249 -0.766,5.826 -0.426,3.241 -0.214,1.628 0,0" /></g><g
           transform="translate(68.4439,511.5194)"
           id="g32"><path
             id="path34"
             style="fill:#000000;fill-opacity:1;fill-rule:nonzero;stroke:none"
             d="m 0,0 c 0,-2.978 0,-5.127 0,-7.276 0,-99.465 -0.012,-198.93 0.04,-298.395 0.002,-3.973 0.314,-7.998 0.995,-11.909 1.503,-8.62 5.468,-12.527 14.184,-12.403 18.305,0.261 36.626,0.793 54.897,1.918 38.384,2.365 76.495,7.047 114.133,15.128 7.291,1.566 14.489,3.56 22.339,5.508 v -29.032 H -26.578 c 0,1.848 0,3.781 0,5.714 -0.001,108.295 0.027,216.59 -0.103,324.885 -0.006,4.811 1.184,6.363 6.122,5.986 C -13.971,-0.379 -7.316,0 0,0" /></g><g
           transform="translate(321.9251,372.7907)"
           id="g36"><path
             id="path38"
             style="fill:#000000;fill-opacity:1;fill-rule:nonzero;stroke:none"
             d="m 0,0 c 7.863,-1.41 15.163,-2.881 22.516,-4.008 24.046,-3.686 47.895,-8.189 70.958,-16.169 15.225,-5.269 29.547,-12.255 41.76,-22.931 19.089,-16.686 26.008,-38.474 25.558,-63.077 -0.689,-37.729 -20.107,-63.641 -52.521,-80.415 -33.471,-17.322 -69.553,-20.556 -106.525,-17.438 -0.317,0.027 -0.62,0.223 -1.347,0.499 v 6.512 c 10.615,-0.375 21.066,-1.208 31.499,-1.016 21.59,0.396 42.368,4.979 61.518,15.119 22.46,11.892 38.393,29.532 42.407,55.346 3.994,25.683 -1.119,48.987 -23.044,65.722 -13.458,10.272 -29.243,16.012 -45.578,19.571 -18.357,3.999 -36.946,6.956 -55.476,10.12 C 0.033,-30.168 -0.001,-30.37 0,-18.439 0.001,-12.474 0,-6.509 0,0" /></g><g
           transform="translate(322.2316,511.2289)"
           id="g40"><path
             id="path42"
             style="fill:#000000;fill-opacity:1;fill-rule:nonzero;stroke:none"
             d="m 0,0 c -0.214,1.628 -0.426,3.241 -0.766,5.826 9.79,0.423 19.55,1.384 29.282,1.162 27.241,-0.619 54.19,-3.552 79.779,-13.725 11.802,-4.692 22.932,-10.647 31.557,-20.43 7.483,-8.488 10.757,-18.228 9.363,-29.47 -0.97,-7.814 -4.536,-13.788 -12.746,-16.973 -0.64,1.892 -1.284,3.696 -1.86,5.52 C 126.93,-43.8 110.6,-27.007 88.455,-15.518 61.17,-1.362 31.955,2.387 1.662,-0.262 1.203,-0.302 0.725,-0.121 0,0" /></g><g
           transform="translate(50.6191,132.1713)"
           id="g44"><path
             id="path46"
             style="fill:#000000;fill-opacity:1;fill-rule:nonzero;stroke:none"
             d="m 0,0 v -51.973 h 28.908 v -6.602 H -7.495 l 0,58.575 z" /></g><g
           transform="translate(170.2646,132.1713)"
           id="g48"><path
             id="path50"
             style="fill:#000000;fill-opacity:1;fill-rule:nonzero;stroke:none"
             d="m 0,0 h 7.495 v -41.132 c 0,-5.889 -2.052,-10.573 -6.157,-14.053 -4.104,-3.479 -9.591,-5.219 -16.461,-5.219 -6.93,0 -12.388,1.725 -16.373,5.175 -3.985,3.45 -5.978,8.148 -5.978,14.097 V 0 h 7.406 v -41.132 c 0,-4.254 1.36,-7.435 4.082,-9.547 2.721,-2.112 6.341,-3.168 10.863,-3.168 4.699,0 8.394,1.13 11.086,3.391 2.691,2.26 4.037,5.368 4.037,9.324 z" /></g><g
           transform="translate(280.3647,132.1713)"
           id="g52"><path
             id="path54"
             style="fill:#000000;fill-opacity:1;fill-rule:nonzero;stroke:none"
             d="m 0,0 v -58.575 h -8.432 l -30.291,47.422 v -47.422 h -7.048 V 0 h 8.119 L -7.093,-47.868 V 0 Z" /></g><g
           transform="translate(345.7192,100.2738)"
           id="g56"><path
             id="path58"
             style="fill:#000000;fill-opacity:1;fill-rule:nonzero;stroke:none"
             d="m 0,0 v -20.075 h 34.574 v -6.603 H -7.45 V 31.897 H 33.057 V 25.25 L 0,25.25 V 6.558 H 31.897 V 0 Z" /></g><g
           transform="translate(456.6655,78.3246)"
           id="g60"><path
             id="path62"
             style="fill:#000000;fill-opacity:1;fill-rule:nonzero;stroke:none"
             d="m 0,0 c 2.409,0 4.535,0.238 6.379,0.714 1.844,0.475 3.294,1.071 4.35,1.785 1.056,0.713 1.911,1.568 2.565,2.564 0.654,0.997 1.086,1.926 1.294,2.789 0.208,0.862 0.312,1.769 0.312,2.721 0,2.32 -0.87,4.253 -2.609,5.8 -1.74,1.546 -4.455,2.795 -8.142,3.747 l -14.499,3.837 c -7.673,1.992 -11.509,6.527 -11.509,13.606 0,5.324 1.865,9.525 5.598,12.603 3.732,3.078 8.811,4.617 15.235,4.617 6.721,0 11.956,-1.592 15.703,-4.773 3.748,-3.183 5.651,-7.658 5.711,-13.428 h -7.094 c -0.06,3.836 -1.338,6.78 -3.836,8.833 -2.499,2.052 -6.083,3.078 -10.751,3.078 -3.957,0 -7.131,-0.9 -9.525,-2.699 -2.394,-1.8 -3.591,-4.187 -3.591,-7.16 0,-2.261 0.714,-4.03 2.141,-5.309 1.428,-1.279 3.926,-2.394 7.495,-3.346 l 14.722,-3.97 c 3.985,-1.071 7.055,-2.878 9.212,-5.42 2.156,-2.543 3.234,-5.629 3.234,-9.257 0,-1.577 -0.201,-3.123 -0.602,-4.64 C 21.392,5.175 20.655,3.599 19.584,1.963 18.514,0.327 17.153,-1.108 15.502,-2.342 13.852,-3.576 11.651,-4.588 8.9,-5.375 6.149,-6.163 3.019,-6.558 -0.491,-6.558 c -2.201,0 -4.304,0.172 -6.312,0.513 -2.008,0.343 -4.053,0.989 -6.134,1.941 -2.082,0.952 -3.881,2.164 -5.398,3.636 -1.517,1.472 -2.774,3.442 -3.77,5.911 -0.997,2.468 -1.51,5.293 -1.539,8.476 h 7.093 v -0.446 c 0,-1.636 0.253,-3.183 0.759,-4.64 0.505,-1.457 1.338,-2.877 2.498,-4.26 1.16,-1.383 2.877,-2.491 5.152,-3.324 C -5.866,0.416 -3.152,0 0,0" /></g><g
           transform="translate(349.6924,33.5785)"
           id="g64"><path
             id="path66"
             style="fill:#000000;fill-opacity:1;fill-rule:nonzero;stroke:none"
             d="M 0,0 C 0.042,-0.633 0.186,-1.213 0.43,-1.74 0.675,-2.268 1,-2.725 1.404,-3.112 1.81,-3.501 2.288,-3.802 2.84,-4.018 3.393,-4.232 3.998,-4.34 4.656,-4.34 c 0.591,0 1.156,0.066 1.696,0.196 0.539,0.131 1.016,0.337 1.429,0.621 0.413,0.282 0.742,0.649 0.987,1.1 0.245,0.451 0.367,0.997 0.367,1.639 0,0.522 -0.133,0.968 -0.399,1.334 C 8.471,0.917 8.121,1.233 7.687,1.499 7.252,1.765 6.758,1.994 6.206,2.188 5.653,2.383 5.095,2.563 4.53,2.732 4.057,2.867 3.583,3.016 3.106,3.176 2.629,3.336 2.17,3.518 1.727,3.72 1.284,3.922 0.871,4.154 0.487,4.415 0.104,4.677 -0.23,4.984 -0.512,5.339 -0.795,5.693 -1.019,6.096 -1.183,6.548 -1.347,6.998 -1.43,7.52 -1.43,8.11 c 0,0.734 0.144,1.381 0.43,1.942 0.287,0.561 0.69,1.031 1.209,1.411 0.519,0.38 1.139,0.668 1.86,0.866 0.721,0.198 1.512,0.298 2.372,0.298 0.767,0 1.447,-0.076 2.037,-0.228 0.59,-0.152 1.105,-0.359 1.543,-0.62 0.439,-0.261 0.811,-0.567 1.114,-0.917 0.304,-0.35 0.553,-0.719 0.746,-1.107 0.195,-0.389 0.338,-0.789 0.431,-1.202 0.092,-0.413 0.151,-0.81 0.177,-1.19 H 8.566 C 8.515,7.954 8.374,8.473 8.142,8.92 7.91,9.366 7.61,9.742 7.244,10.046 6.876,10.35 6.453,10.577 5.972,10.729 5.491,10.881 4.981,10.957 4.441,10.957 3.943,10.957 3.456,10.906 2.979,10.805 2.503,10.704 2.077,10.541 1.702,10.317 1.326,10.094 1.023,9.801 0.791,9.438 0.559,9.075 0.443,8.633 0.443,8.11 0.443,7.57 0.574,7.112 0.835,6.737 1.097,6.361 1.447,6.039 1.885,5.77 2.324,5.499 2.824,5.268 3.385,5.073 3.945,4.879 4.525,4.689 5.125,4.504 5.597,4.353 6.071,4.198 6.548,4.042 7.024,3.886 7.482,3.707 7.92,3.505 8.359,3.302 8.766,3.072 9.142,2.815 9.517,2.558 9.841,2.258 10.116,1.917 10.39,1.575 10.607,1.183 10.767,0.74 c 0.16,-0.443 0.241,-0.951 0.241,-1.524 0,-0.861 -0.158,-1.618 -0.475,-2.272 C 10.217,-3.71 9.776,-4.256 9.211,-4.694 8.646,-5.133 7.975,-5.464 7.199,-5.687 6.423,-5.911 5.575,-6.022 4.656,-6.022 c -0.826,0 -1.632,0.141 -2.416,0.423 -0.785,0.283 -1.483,0.683 -2.094,1.203 -0.612,0.518 -1.105,1.148 -1.481,1.891 C -1.71,-1.764 -1.911,-0.928 -1.936,0 Z" /></g><g
           transform="translate(388.2187,45.7123)"
           id="g68"><path
             id="path70"
             style="fill:#000000;fill-opacity:1;fill-rule:nonzero;stroke:none"
             d="M 0,0 V -1.708 H -5.845 V -17.65 h -1.873 v 15.942 h -5.833 V 0 Z" /></g><g
           transform="translate(416.4209,36.9057)"
           id="g72"><path
             id="path74"
             style="fill:#000000;fill-opacity:1;fill-rule:nonzero;stroke:none"
             d="M 0,0 C 0,1.189 -0.156,2.254 -0.468,3.195 -0.78,4.136 -1.208,4.933 -1.752,5.586 -2.296,6.24 -2.935,6.737 -3.669,7.079 -4.403,7.421 -5.191,7.592 -6.035,7.592 -6.887,7.592 -7.68,7.421 -8.414,7.079 -9.147,6.737 -9.785,6.24 -10.324,5.586 -10.864,4.933 -11.288,4.136 -11.596,3.195 -11.904,2.254 -12.058,1.189 -12.058,0 c 0,-1.189 0.154,-2.256 0.462,-3.201 0.308,-0.945 0.732,-1.744 1.272,-2.398 0.539,-0.653 1.177,-1.153 1.91,-1.499 0.734,-0.345 1.527,-0.518 2.379,-0.518 0.844,0 1.632,0.173 2.366,0.518 0.734,0.346 1.373,0.846 1.917,1.499 0.544,0.654 0.972,1.453 1.284,2.398 C -0.156,-2.256 0,-1.189 0,0 m 1.885,0 c 0,-1.358 -0.175,-2.606 -0.525,-3.745 -0.35,-1.139 -0.862,-2.119 -1.537,-2.942 -0.675,-0.822 -1.504,-1.46 -2.486,-1.917 -0.983,-0.455 -2.107,-0.682 -3.372,-0.682 -1.265,0 -2.389,0.227 -3.372,0.682 -0.983,0.457 -1.809,1.095 -2.48,1.917 -0.67,0.823 -1.181,1.803 -1.53,2.942 -0.351,1.139 -0.526,2.387 -0.526,3.745 0,1.35 0.175,2.592 0.526,3.727 0.349,1.133 0.86,2.11 1.53,2.928 0.671,0.819 1.497,1.455 2.48,1.91 0.983,0.456 2.107,0.684 3.372,0.684 1.265,0 2.389,-0.228 3.372,-0.684 C -1.681,8.11 -0.852,7.474 -0.177,6.655 0.498,5.837 1.01,4.86 1.36,3.727 1.71,2.592 1.885,1.35 1.885,0" /></g><g
           transform="translate(435.6143,37.2856)"
           id="g76"><path
             id="path78"
             style="fill:#000000;fill-opacity:1;fill-rule:nonzero;stroke:none"
             d="m 0,0 h 5.339 c 0.464,0 0.903,0.089 1.316,0.266 0.413,0.176 0.779,0.421 1.095,0.733 0.316,0.313 0.567,0.675 0.752,1.089 0.186,0.413 0.279,0.86 0.279,1.341 0,0.472 -0.087,0.909 -0.26,1.309 C 8.349,5.139 8.108,5.486 7.8,5.782 7.492,6.077 7.127,6.307 6.706,6.472 6.284,6.636 5.829,6.719 5.339,6.719 H 0 Z m 10.666,3.403 c 0,-0.438 -0.053,-0.869 -0.158,-1.29 C 10.402,1.691 10.247,1.292 10.04,0.917 9.833,0.542 9.574,0.198 9.262,-0.114 8.95,-0.426 8.591,-0.696 8.186,-0.924 c 0.456,-0.118 0.829,-0.297 1.12,-0.538 0.291,-0.24 0.519,-0.518 0.683,-0.835 0.165,-0.316 0.279,-0.66 0.342,-1.031 0.063,-0.371 0.095,-0.75 0.095,-1.139 v -2.669 c 0,-0.38 0.052,-0.749 0.158,-1.107 0.105,-0.359 0.238,-0.686 0.398,-0.981 H 8.945 c -0.084,0.135 -0.15,0.289 -0.196,0.462 -0.046,0.173 -0.082,0.352 -0.107,0.538 -0.026,0.185 -0.043,0.365 -0.051,0.537 -0.008,0.173 -0.012,0.324 -0.012,0.45 v 2.808 c 0,0.338 -0.058,0.673 -0.171,1.006 -0.114,0.333 -0.3,0.631 -0.557,0.893 -0.258,0.26 -0.593,0.471 -1.006,0.633 -0.413,0.159 -0.915,0.24 -1.506,0.24 H 0 V -9.224 H -1.873 V 8.427 H 5.339 C 6.2,8.427 6.961,8.276 7.623,7.978 8.285,7.678 8.842,7.29 9.293,6.813 9.745,6.337 10.086,5.799 10.318,5.2 10.55,4.601 10.666,4.002 10.666,3.403" /></g><g
           transform="translate(474.4062,45.7123)"
           id="g80"><path
             id="path82"
             style="fill:#000000;fill-opacity:1;fill-rule:nonzero;stroke:none"
             d="m 0,0 v -1.708 h -9.894 v -5.973 h 9.312 v -1.708 h -9.312 v -6.553 H 0.443 v -1.708 h -12.21 V 0 Z" /></g></g></g></g></svg>